<?xml version="1.0" standalone="no"?>
<!DOCTYPE svg PUBLIC "-//W3C//DTD SVG 20010904//EN"
 "http://www.w3.org/TR/2001/REC-SVG-20010904/DTD/svg10.dtd">
<svg version="1.0" xmlns="http://www.w3.org/2000/svg"
 width="262.000000pt" height="262.000000pt" viewBox="0 0 262.000000 262.000000"
 preserveAspectRatio="xMidYMid meet">
<metadata>
Created by potrace 1.14, written by Peter Selinger 2001-2017
</metadata>
<g transform="translate(0.000000,262.000000) scale(0.100000,-0.100000)"
fill="#000000" stroke="none">
<path d="M1140 2603 c-297 -45 -550 -173 -753 -379 -182 -185 -295 -398 -353
-665 -29 -130 -26 -381 4 -519 111 -497 488 -885 973 -999 105 -25 288 -43
352 -35 43 6 49 10 54 35 4 20 12 29 24 29 11 0 19 5 19 10 0 6 6 10 13 10 7
0 21 16 30 36 10 19 13 33 7 29 -13 -8 -13 -1 4 40 9 20 14 68 14 122 0 48 3
98 6 111 3 13 1 20 -5 17 -13 -9 -11 9 4 24 10 11 9 12 -1 7 -9 -6 -11 -1 -8
18 3 14 1 26 -4 26 -5 0 -8 13 -8 30 1 16 -5 36 -11 44 -7 8 -10 20 -6 26 3 5
1 10 -4 10 -6 0 -11 12 -11 26 0 14 -4 23 -9 19 -13 -7 -21 7 -23 42 -1 15 -5
33 -9 39 -15 19 -10 164 5 164 4 0 6 9 3 20 -3 11 -1 20 5 20 6 0 8 6 5 14 -3
8 3 24 14 37 13 15 16 26 9 34 -8 9 -4 14 12 18 12 4 19 9 15 13 -4 4 0 16 10
26 9 10 13 18 10 18 -4 0 0 8 8 18 8 9 15 21 14 25 0 5 12 23 28 39 16 18 23
32 17 35 -7 2 -9 13 -6 25 3 14 1 19 -6 14 -16 -9 -15 7 0 22 7 7 8 12 2 12
-6 0 -10 27 -10 62 1 57 -1 61 -21 63 -15 1 -23 -4 -23 -14 0 -10 -10 -6 -32
15 -17 16 -28 23 -24 17 4 -7 2 -13 -3 -13 -6 0 -11 4 -11 10 0 5 -8 17 -19
27 -23 22 -35 86 -22 112 15 28 34 31 85 16 26 -8 44 -10 41 -5 -4 6 -12 10
-19 10 -17 0 -86 72 -86 90 0 13 -2 13 -9 1 -7 -11 -10 -10 -13 5 -5 28 12
147 24 161 13 16 110 17 124 3 6 -6 25 -15 43 -20 28 -8 33 -6 40 13 19 49
108 100 135 78 8 -7 20 -11 28 -10 17 3 70 -11 84 -22 6 -5 23 -10 37 -11 14
-1 23 -6 20 -11 -3 -4 4 -11 16 -14 12 -3 21 -9 21 -13 0 -4 11 -11 25 -14 14
-4 25 -11 25 -16 0 -6 13 -29 30 -51 16 -23 27 -45 24 -50 -2 -5 2 -23 11 -40
10 -18 12 -28 5 -24 -9 6 -10 -1 -5 -26 11 -52 23 -79 35 -79 5 0 9 -3 8 -7
-1 -5 4 -20 10 -35 8 -21 8 -40 -3 -80 -7 -29 -11 -56 -9 -60 3 -5 0 -8 -5 -8
-6 0 -11 -11 -11 -25 0 -14 -7 -28 -15 -31 -8 -4 -15 -17 -15 -31 0 -16 -4
-22 -12 -17 -8 5 -9 2 -5 -10 4 -10 7 -20 7 -22 0 -2 7 -4 15 -4 8 0 20 -9 27
-20 7 -11 20 -20 28 -21 11 0 11 -2 2 -6 -16 -6 3 -33 24 -33 8 0 14 -6 14
-14 0 -8 7 -17 16 -20 8 -3 13 -10 10 -15 -3 -5 3 -11 14 -14 11 -3 20 -10 20
-17 0 -6 -6 -8 -12 -4 -7 4 -5 -2 6 -14 10 -12 23 -19 29 -15 6 4 8 0 4 -10
-3 -10 -2 -17 3 -17 5 0 12 -9 15 -20 4 -11 11 -18 16 -15 10 7 53 -14 46 -22
-9 -8 33 -44 53 -46 10 -1 17 -4 14 -8 -2 -4 5 -10 15 -14 13 -4 18 -12 14
-22 -4 -11 -2 -14 8 -11 8 3 20 -1 27 -9 21 -21 30 -8 57 81 39 129 55 239 55
386 0 274 -67 498 -217 724 -193 292 -513 501 -860 561 -78 14 -325 19 -393 8z
m-330 -479 c9 -22 14 -25 41 -19 l31 7 -16 -29 c-13 -27 -13 -30 5 -41 27 -17
24 -32 -6 -32 -21 0 -25 -5 -25 -30 0 -34 -6 -37 -32 -13 -17 15 -19 15 -36 0
-26 -24 -32 -21 -32 12 0 23 -5 30 -27 36 l-28 7 24 19 c21 17 23 23 12 46
-12 25 -11 26 19 20 26 -6 32 -3 40 18 12 32 18 31 30 -1z m320 -316 c0 -4 14
-5 30 -1 30 6 31 5 18 -22 -11 -24 -10 -29 9 -45 25 -20 20 -30 -14 -30 -19 0
-23 -5 -23 -32 l0 -31 -24 22 c-15 14 -26 19 -31 12 -3 -6 -15 -16 -27 -22
-19 -10 -20 -9 -16 21 4 28 2 32 -24 37 -33 6 -36 19 -8 28 23 7 25 18 9 47
-14 26 -8 31 25 18 24 -9 28 -7 37 18 10 26 11 26 25 8 8 -11 14 -23 14 -28z
m-653 -75 l33 6 -15 -29 c-14 -28 -14 -30 5 -42 26 -17 25 -26 -2 -30 -17 -2
-24 -11 -26 -30 -4 -32 -9 -34 -34 -11 -17 15 -19 15 -36 0 -26 -24 -32 -21
-32 13 0 25 -4 30 -25 30 -30 0 -33 15 -4 30 11 7 18 17 16 23 -21 51 -22 50
11 42 28 -6 33 -3 43 22 l12 28 11 -28 c9 -26 14 -28 43 -24z m428 -203 c4
-13 15 -20 32 -20 26 0 26 0 7 -21 -11 -12 -17 -31 -15 -47 3 -25 2 -25 -21
-10 -16 11 -30 13 -39 7 -23 -14 -31 -10 -24 12 4 13 0 27 -11 40 -16 17 -16
19 0 19 9 0 24 9 33 20 10 11 21 20 25 20 3 0 10 -9 13 -20z m-121 -336 c6
-23 11 -26 36 -20 33 6 35 4 19 -26 -9 -16 -7 -24 11 -43 l22 -23 -28 -4 c-24
-2 -30 -9 -34 -37 l-5 -33 -19 21 c-18 19 -21 20 -42 6 -32 -21 -34 -19 -27
15 5 27 3 30 -20 30 -35 0 -41 14 -12 30 23 12 23 14 9 43 l-16 30 35 -7 c31
-6 35 -4 41 19 8 32 22 32 30 -1z"/>
<path d="M1468 1838 c-15 -15 -16 -18 -3 -18 9 0 18 7 22 15 8 23 0 24 -19 3z"/>
<path d="M1720 1775 c0 -10 9 -14 24 -13 19 2 22 5 14 15 -14 18 -38 16 -38
-2z"/>
<path d="M1816 1671 c-10 -11 -19 -25 -20 -33 -1 -7 -10 -27 -19 -45 -19 -36
-21 -43 -9 -43 9 0 43 71 39 81 -1 4 7 16 17 28 11 12 17 23 14 26 -3 3 -13
-4 -22 -14z"/>
<path d="M1440 1586 c0 -8 140 -48 153 -43 7 2 -13 11 -43 19 -78 22 -110 29
-110 24z"/>
<path d="M1749 1528 c0 -7 -2 -33 -5 -57 -2 -24 0 -49 5 -55 5 -6 12 -31 16
-56 7 -46 57 -122 71 -107 4 4 -4 20 -19 35 -18 19 -28 43 -33 80 -3 28 -10
52 -15 52 -5 0 -7 27 -5 60 2 33 -1 60 -5 60 -5 0 -9 -6 -10 -12z"/>
<path d="M2047 1321 c-10 -19 -15 -36 -13 -38 8 -8 38 46 34 59 -3 7 -12 -3
-21 -21z"/>
<path d="M1971 1273 c-7 -13 -10 -14 -11 -4 0 11 -5 10 -20 -4 -12 -10 -20
-13 -20 -6 0 8 -5 8 -20 -1 -17 -11 -22 -10 -29 0 -7 11 -9 11 -14 -2 -8 -20
29 -32 48 -16 8 7 15 8 15 3 0 -11 71 -4 88 9 6 6 12 17 12 26 0 12 -4 12 -22
-4 -19 -17 -21 -17 -15 -1 4 9 4 17 2 17 -2 0 -9 -8 -14 -17z"/>
<path d="M1570 881 c-5 -11 -7 -26 -4 -34 3 -8 1 -18 -4 -21 -10 -6 3 -76 19
-108 5 -10 9 -27 9 -38 0 -12 11 -32 25 -46 14 -14 25 -31 25 -38 0 -7 14 -32
30 -54 17 -23 30 -47 30 -53 0 -16 42 -89 52 -89 4 0 8 3 8 8 0 13 -47 99 -73
133 -14 19 -28 46 -32 61 -4 15 -13 32 -21 39 -8 6 -14 17 -14 23 0 6 -8 25
-17 41 -11 21 -16 56 -17 112 -1 46 -2 83 -3 83 -1 0 -7 -9 -13 -19z"/>
<path d="M1768 303 c0 -10 -1 -24 -1 -30 1 -7 -4 -13 -9 -13 -6 0 -8 -7 -4
-15 3 -8 2 -15 -3 -15 -10 0 -25 -69 -26 -117 -1 -38 7 -40 67 -17 60 23 76
45 76 102 0 48 -18 82 -44 82 -8 0 -19 9 -26 20 -16 25 -27 26 -30 3z"/>
</g>
</svg>
